/* XPM */
static char * delete_images_xpm[] = {
"24 24 166 2",
"  	c None",
". 	c #010000",
"+ 	c #080102",
"@ 	c #0E0203",
"# 	c #110305",
"$ 	c #140505",
"% 	c #150405",
"& 	c #130204",
"* 	c #020000",
"= 	c #030000",
"- 	c #B1A4A4",
"; 	c #CEBBBC",
"> 	c #DDCCCC",
", 	c #DDCCCD",
"' 	c #CBB6B7",
") 	c #B89A9B",
"! 	c #7D5E61",
"~ 	c #210708",
"{ 	c #270A0B",
"] 	c #A19999",
"^ 	c #DED1D1",
"/ 	c #F3E6E6",
"( 	c #EFE0E1",
"_ 	c #EBDCDD",
": 	c #EADCDC",
"< 	c #E4D7D7",
"[ 	c #E6D2D3",
"} 	c #E1C5C6",
"| 	c #AC7D7D",
"1 	c #654040",
"2 	c #2E0C0D",
"3 	c #050001",
"4 	c #DED1D2",
"5 	c #F4EBEB",
"6 	c #F1E6E6",
"7 	c #EBDFDF",
"8 	c #E4DBDA",
"9 	c #E5DBDB",
"0 	c #E2D3D3",
"a 	c #DDC3C4",
"b 	c #DBB3B6",
"c 	c #A06E6E",
"d 	c #310D0D",
"e 	c #A39596",
"f 	c #F5ECEC",
"g 	c #EEE4E4",
"h 	c #120808",
"i 	c #E4DADA",
"j 	c #E5DEDD",
"k 	c #0E0505",
"l 	c #CBB3B4",
"m 	c #D8B9BB",
"n 	c #B88B8C",
"o 	c #633E3F",
"p 	c #250A0A",
"q 	c #BFB2B3",
"r 	c #EADEDE",
"s 	c #190E0E",
"t 	c #0F0606",
"u 	c #130A0A",
"v 	c #E6DCDC",
"w 	c #0C0404",
"x 	c #0F0505",
"y 	c #130606",
"z 	c #C3A9A9",
"A 	c #CBA5A6",
"B 	c #A57577",
"C 	c #2C0B0D",
"D 	c #0D0303",
"E 	c #D1C3C4",
"F 	c #EDE1E0",
"G 	c #120909",
"H 	c #090303",
"I 	c #0B0303",
"J 	c #0D0404",
"K 	c #B9A7A7",
"L 	c #DEC6C7",
"M 	c #CCABAD",
"N 	c #B68B8F",
"O 	c #290A0C",
"P 	c #CCB9B9",
"Q 	c #ECE1E1",
"R 	c #E5DDDD",
"S 	c #DFD1D0",
"T 	c #DFCDCC",
"U 	c #CDB1B1",
"V 	c #CBA7A9",
"W 	c #B28487",
"X 	c #2B0A0C",
"Y 	c #1B0607",
"Z 	c #C9AFB0",
"` 	c #ECDFDF",
" .	c #E6DEDF",
"..	c #0F0405",
"+.	c #120506",
"@.	c #D0B4B6",
"#.	c #CBAAAB",
"$.	c #C09699",
"%.	c #A17273",
"&.	c #2A0B0C",
"*.	c #1A0507",
"=.	c #AD8C8D",
"-.	c #D6C0C0",
";.	c #E1D0D1",
">.	c #0F0504",
",.	c #100405",
"'.	c #DECFCF",
").	c #120505",
"!.	c #180707",
"~.	c #24090A",
"{.	c #C69B9E",
"].	c #B38083",
"^.	c #905E5F",
"/.	c #170405",
"(.	c #957273",
"_.	c #C6A3A5",
":.	c #DAB9BA",
"<.	c #DCC4C4",
"[.	c #130505",
"}.	c #DCC6C7",
"|.	c #E0C9CA",
"1.	c #CFB3B4",
"2.	c #22080A",
"3.	c #BA8D8F",
"4.	c #BE8C8D",
"5.	c #A16C6E",
"6.	c #774748",
"7.	c #220809",
"8.	c #1D0607",
"9.	c #B88D8F",
"0.	c #C79FA0",
"a.	c #D6B2B4",
"b.	c #D8BEBF",
"c.	c #CDACAF",
"d.	c #D9BABC",
"e.	c #CBA5A7",
"f.	c #C6999A",
"g.	c #BF8B8C",
"h.	c #9F6A6B",
"i.	c #804F50",
"j.	c #1E0708",
"k.	c #A17477",
"l.	c #C29698",
"m.	c #C69E9F",
"n.	c #C69B9C",
"o.	c #C59898",
"p.	c #B27C7D",
"q.	c #AB7475",
"r.	c #8C5A5B",
"s.	c #734849",
"t.	c #210707",
"u.	c #250909",
"v.	c #9E7070",
"w.	c #B98A8B",
"x.	c #B88888",
"y.	c #B37D7F",
"z.	c #9F6767",
"A.	c #824E4F",
"B.	c #703F40",
"C.	c #27090A",
"D.	c #1B0507",
"E.	c #1E0707",
"F.	c #230909",
"G.	c #280B0B",
"H.	c #2C0B0C",
"I.	c #2F0C0C",
"                                                ",
"                                                ",
"                                                ",
"                                                ",
"                . + @ # $ % &                   ",
"            * = - ; > , ' ) ! ~ {               ",
"          = ] ^ / ( _ : < [ } | 1 2             ",
"          3 4 5 6 7 8 8 9 0 a b c d             ",
"        3 e f g 7 h 8 i j k l m n o p           ",
"        + q 6 r s t u v w x y z A B C           ",
"        D E F r 8 G H I J x K L M N O           ",
"        $ P Q 8 R R I J J S T U V W X           ",
"        Y Z `  . .J ....k +.@.#.$.%.&.          ",
"        *.=.-.;...>.,.'.).!.~.{.].^.O           ",
"        /.(._.:.<.[.}.|.1.2.3.4.5.6.7.          ",
"          8.9.0.a.b.c.d.e.f.g.h.i.O             ",
"          j.k.l.m.n.f.o.4.p.q.r.s.8.            ",
"            t.u.v.w.x.y.z.A.B.C.D.              ",
"                E.F.G.H.I.I.C.                  ",
"                                                ",
"                                                ",
"                                                ",
"                                                ",
"                                                "};
