/* XPM */
static char *fliph_xpm[] = {
"24 24 20 1",
" 	c None",
".	c #020202",
"+	c #000000",
"@	c #010101",
"#	c #030303",
"$	c #050505",
"%	c #474747",
"&	c #171717",
"*	c #8C8C8C",
"=	c #090909",
"-	c #1B1B1B",
";	c #323232",
">	c #868686",
",	c #797979",
"'	c #070707",
")	c #7D7D7D",
"!	c #040404",
"~	c #848484",
"{	c #141414",
"]	c #8B8B8B",
"            .           ",
"            +           ",
"            @           ",
"            #           ",
"            +           ",
"            +           ",
"            $           ",
"     %      +     &+    ",
"   *=@      +     - +   ",
"  ;++@      @     &  +> ",
",'+@@@+#+++++++++++   + ",
"+#+++.++@++++          +",
"+@+#++@@++@@+          +",
")!@+@@+!++@++++++++   +~",
"  ;+.+      +     +  {  ",
"   ]=+      +     +>+   ",
"            @     ++    ",
"            +           ",
"            +           ",
"            +           ",
"            !           ",
"            +           ",
"            @           ",
"            .           "};
