/* XPM */
static char *flipv_xpm[] = {
"24 24 20 1",
" 	c None",
".	c #7D7D7D",
"+	c #000000",
"@	c #797979",
"#	c #040404",
"$	c #010101",
"%	c #030303",
"&	c #070707",
"*	c #323232",
"=	c #8B8B8B",
"-	c #8C8C8C",
";	c #090909",
">	c #020202",
",	c #474747",
"'	c #050505",
")	c #171717",
"!	c #1B1B1B",
"~	c #868686",
"{	c #141414",
"]	c #848484",
"          .++@          ",
"          #$%&          ",
"         *$+++*         ",
"        =++%+$+-        ",
"        ;>$++$+;        ",
"        ++$+>$$$,       ",
"          +$++          ",
"          #$+%          ",
"          ++$+          ",
"          ++++          ",
"          $$++          ",
"          +$++          ",
">$+#+++$++++++$++'++%$+>",
"          +  +          ",
"          +  +          ",
"          +  +          ",
"          +  +          ",
"          +  +          ",
"       ++++  +)!)       ",
"       +~       +       ",
"        +      +        ",
"         {    +         ",
"          +  +~         ",
"          ]++           "};
