/* XPM */
static char * folder_xpm[] = {
"48 48 452 2",
"  	c None",
". 	c #ACACAC",
"+ 	c #5B5D5A",
"@ 	c #393B38",
"# 	c #9F9F9F",
"$ 	c #70726F",
"% 	c #D3D8D2",
"& 	c #E9EEE8",
"* 	c #2C2C2A",
"= 	c #1E1E1E",
"- 	c #B0B0AE",
"; 	c #5C5E5B",
"> 	c #AFB6AE",
", 	c #C7CEC6",
"' 	c #F4F6F1",
") 	c #BDBFBC",
"! 	c #141613",
"~ 	c #8C8C8C",
"{ 	c #6C6C6E",
"] 	c #5E5E5E",
"^ 	c #4C4C4C",
"/ 	c #7C7C7C",
"( 	c #4E504D",
"_ 	c #B4BEB5",
": 	c #ACB8AC",
"< 	c #B2BCB3",
"[ 	c #DCE3DB",
"} 	c #F6FBF7",
"| 	c #828481",
"1 	c #2C2E2B",
"2 	c #595B58",
"3 	c #4A4A4A",
"4 	c #646665",
"5 	c #4C4E4D",
"6 	c #505050",
"7 	c #FAFAFA",
"8 	c #BCBCBC",
"9 	c #404040",
"0 	c #868686",
"a 	c #ADB7AC",
"b 	c #ACB8AA",
"c 	c #ADB9AD",
"d 	c #BBC2BA",
"e 	c #E8EDE7",
"f 	c #C2C7C1",
"g 	c #414340",
"h 	c #2F3130",
"i 	c #E2E7E3",
"j 	c #EAEFEB",
"k 	c #363837",
"l 	c #727272",
"m 	c #444444",
"n 	c #FFFFFF",
"o 	c #FEFEFE",
"p 	c #DEDEDE",
"q 	c #080808",
"r 	c #696B68",
"s 	c #9CA39B",
"t 	c #ABB7AB",
"u 	c #ABB9AA",
"v 	c #4F5950",
"w 	c #383D37",
"x 	c #1B1D1A",
"y 	c #AEB5AE",
"z 	c #E6EDE6",
"A 	c #FDFFFC",
"B 	c #525453",
"C 	c #3F3F3F",
"D 	c #FDFDFD",
"E 	c #F6F6F6",
"F 	c #252724",
"G 	c #3C413B",
"H 	c #7C867B",
"I 	c #99A599",
"J 	c #5A6459",
"K 	c #4A5149",
"L 	c #282A27",
"M 	c #ADB4AC",
"N 	c #AFB9B0",
"O 	c #E5ECE5",
"P 	c #FBFFFE",
"Q 	c #8D8D8D",
"R 	c #383639",
"S 	c #0E0E0E",
"T 	c #545653",
"U 	c #191E18",
"V 	c #585F58",
"W 	c #818B82",
"X 	c #A3AFA3",
"Y 	c #6C766B",
"Z 	c #D2D9D1",
"` 	c #71736E",
" .	c #3F3F3D",
"..	c #474747",
"+.	c #B1B1B1",
"@.	c #9C9E9B",
"#.	c #5B655C",
"$.	c #ADB7AE",
"%.	c #CAD1CA",
"&.	c #FCFEFB",
"*.	c #F1F1F1",
"=.	c #050505",
"-.	c #222222",
";.	c #FBFBFB",
">.	c #BBBDBA",
",.	c #040603",
"'.	c #3B403A",
").	c #777F74",
"!.	c #9BA59A",
"~.	c #A2ACA1",
"{.	c #C5CCC4",
"].	c #E7ECE6",
"^.	c #2D2D2B",
"/.	c #5C5C5C",
"(.	c #323931",
"_.	c #B4BBB3",
":.	c #F5FAF4",
"<.	c #B5B7B4",
"[.	c #151515",
"}.	c #C7C7C7",
"|.	c #FCFCFC",
"1.	c #E9E9E9",
"2.	c #5F615E",
"3.	c #0C110B",
"4.	c #515850",
"5.	c #939A92",
"6.	c #AEB8AF",
"7.	c #DDE4DC",
"8.	c #F0F2EF",
"9.	c #7C7C7A",
"0.	c #2B2B2B",
"a.	c #1A1A1A",
"b.	c #A0A0A0",
"c.	c #1A211A",
"d.	c #D1D8D0",
"e.	c #FAFFF9",
"f.	c #F5F7F4",
"g.	c #444645",
"h.	c #4B4B4B",
"i.	c #B3B5B2",
"j.	c #252722",
"k.	c #242B24",
"l.	c #747E75",
"m.	c #A5AFA6",
"n.	c #C1C6C0",
"o.	c #EDEFEA",
"p.	c #ECEEEB",
"q.	c #60625F",
"r.	c #111111",
"s.	c #262626",
"t.	c #292E2A",
"u.	c #899089",
"v.	c #EAF1EA",
"w.	c #F9FEFA",
"x.	c #B7B7B9",
"y.	c #242225",
"z.	c #AFAFAF",
"A.	c #F2F4F1",
"B.	c #8C8E8B",
"C.	c #000300",
"D.	c #424741",
"E.	c #989F97",
"F.	c #AFB7AC",
"G.	c #AFB9AE",
"H.	c #D3DAD2",
"I.	c #EBF0EA",
"J.	c #A3A5A2",
"K.	c #272926",
"L.	c #0E0E0C",
"M.	c #757573",
"N.	c #636562",
"O.	c #4F564F",
"P.	c #C9D0C9",
"Q.	c #F6F8F7",
"R.	c #E5E5E5",
"S.	c #454545",
"T.	c #434343",
"U.	c #F5F5F5",
"V.	c #FEFFFF",
"W.	c #BEC0BD",
"X.	c #262825",
"Y.	c #222721",
"Z.	c #727971",
"`.	c #A5AFA4",
" +	c #B3BDB4",
".+	c #DAE1DA",
"++	c #CDD2CC",
"@+	c #292B28",
"#+	c #080A07",
"$+	c #323232",
"%+	c #AAACA9",
"&+	c #242923",
"*+	c #ACBAAB",
"=+	c #B7BEB6",
"-+	c #EBEDEA",
";+	c #777978",
">+	c #303030",
",+	c #AEAEB0",
"'+	c #FAFCFB",
")+	c #EDEFEC",
"!+	c #676966",
"~+	c #060B05",
"{+	c #4B524B",
"]+	c #9DA79E",
"^+	c #C6D0C7",
"/+	c #D2D9D2",
"(+	c #616662",
"_+	c #292B2A",
":+	c #333333",
"<+	c #161B15",
"[+	c #F1F6F2",
"}+	c #C2C4C3",
"|+	c #797979",
"1+	c #E6E6E6",
"2+	c #FDFDFF",
"3+	c #F8FAF9",
"4+	c #FBFDFA",
"5+	c #ACAEAB",
"6+	c #141915",
"7+	c #444B43",
"8+	c #919B90",
"9+	c #A9B5A9",
"0+	c #B8C2B9",
"a+	c #DBE2DB",
"b+	c #C1C6C2",
"c+	c #2B2D2A",
"d+	c #111612",
"e+	c #ABB9A8",
"f+	c #B6C0B7",
"g+	c #E3E8E2",
"h+	c #E1E3E0",
"i+	c #767676",
"j+	c #595959",
"k+	c #ABABAD",
"l+	c #F5F5F7",
"m+	c #E0E2DF",
"n+	c #5C615D",
"o+	c #1F261F",
"p+	c #9FA99E",
"q+	c #B2BCB1",
"r+	c #BDC4BC",
"s+	c #575C56",
"t+	c #3A3C39",
"u+	c #121713",
"v+	c #A7B3A7",
"w+	c #B5BFB6",
"x+	c #CDD4CD",
"y+	c #E7E9E6",
"z+	c #5D5D5D",
"A+	c #616161",
"B+	c #E8EAE7",
"C+	c #0B0D0A",
"D+	c #7C837C",
"E+	c #737D74",
"F+	c #8E988D",
"G+	c #ABB7A9",
"H+	c #8D978C",
"I+	c #383F37",
"J+	c #666865",
"K+	c #252A26",
"L+	c #7D897F",
"M+	c #ABB9AC",
"N+	c #AAB8A9",
"O+	c #B4C0B4",
"P+	c #DADFD9",
"Q+	c #DFE1DE",
"R+	c #737572",
"S+	c #3D3F3C",
"T+	c #B6B8B5",
"U+	c #E3E3E3",
"V+	c #CBCBCB",
"W+	c #0C0E0B",
"X+	c #666B65",
"Y+	c #686F67",
"Z+	c #687267",
"`+	c #9EA89D",
" @	c #757F74",
".@	c #1B221A",
"+@	c #4D574E",
"@@	c #BDC7BC",
"#@	c #C8CFC7",
"$@	c #D6DBD5",
"%@	c #6A6F69",
"&@	c #5F6460",
"*@	c #999999",
"=@	c #BEBEBE",
"-@	c #696E68",
";@	c #667065",
">@	c #596358",
",@	c #1D241C",
"'@	c #2E332D",
")@	c #ADB9AB",
"!@	c #B4BEB3",
"~@	c #AAB4A9",
"{@	c #2C312B",
"]@	c #999997",
"^@	c #C0BEBF",
"/@	c #656F64",
"(@	c #3A4439",
"_@	c #343933",
":@	c #50524D",
"<@	c #888F87",
"[@	c #555F54",
"}@	c #151A13",
"|@	c #868684",
"1@	c #C1BFC0",
"2@	c #0D0F0C",
"3@	c #7B8678",
"4@	c #96A193",
"5@	c #282F27",
"6@	c #737872",
"7@	c #7B857C",
"8@	c #697466",
"9@	c #141B13",
"0@	c #6B6D6A",
"a@	c #C2C2C2",
"b@	c #585858",
"c@	c #111310",
"d@	c #929D8F",
"e@	c #6D786A",
"f@	c #1D221B",
"g@	c #505750",
"h@	c #7A8479",
"i@	c #6E7A6C",
"j@	c #2C3429",
"k@	c #444643",
"l@	c #C0C0C0",
"m@	c #1A1C19",
"n@	c #A7B2A4",
"o@	c #414C3E",
"p@	c #414841",
"q@	c #6E786D",
"r@	c #AABBAB",
"s@	c #A9BAAA",
"t@	c #748072",
"u@	c #303A2F",
"v@	c #242623",
"w@	c #707A6F",
"x@	c #636862",
"y@	c #545E55",
"z@	c #A8B4A8",
"A@	c #768274",
"B@	c #374136",
"C@	c #1C1E1B",
"D@	c #969696",
"E@	c #151714",
"F@	c #474C46",
"G@	c #788277",
"H@	c #2F362E",
"I@	c #454F46",
"J@	c #9EAC9F",
"K@	c #768372",
"L@	c #3B453A",
"M@	c #363835",
"N@	c #7B7B7B",
"O@	c #10120F",
"P@	c #5B605A",
"Q@	c #869085",
"R@	c #4D574C",
"S@	c #3B453C",
"T@	c #879387",
"U@	c #828F7E",
"V@	c #3B4638",
"W@	c #2D2F2A",
"X@	c #7C7E7B",
"Y@	c #050A04",
"Z@	c #373E36",
"`@	c #484F47",
" #	c #748074",
".#	c #A2AEA0",
"+#	c #889584",
"@#	c #394436",
"##	c #50554F",
"$#	c #2A2C29",
"%#	c #677166",
"&#	c #606A5F",
"*#	c #4F544E",
"=#	c #3D443C",
"-#	c #8B9789",
";#	c #8E9B8A",
">#	c #868B85",
",#	c #070906",
"'#	c #141913",
")#	c #3C433B",
"!#	c #282D27",
"~#	c #030303",
"{#	c #343B33",
"]#	c #525C51",
"^#	c #758173",
"/#	c #9EAC9B",
"(#	c #96A493",
"_#	c #4E5A4C",
":#	c #797E78",
"<#	c #000200",
"[#	c #212620",
"}#	c #262B25",
"|#	c #191B18",
"1#	c #000000",
"2#	c #282828",
"3#	c #576355",
"4#	c #7B897A",
"5#	c #A4B2A3",
"6#	c #98A695",
"7#	c #556153",
"8#	c #70756F",
"9#	c #292E28",
"0#	c #5C635B",
"a#	c #20251F",
"b#	c #060805",
"c#	c #1F211E",
"d#	c #0C0C0C",
"e#	c #566254",
"f#	c #5B6958",
"g#	c #909E8D",
"h#	c #96A795",
"i#	c #5F645E",
"j#	c #0E130D",
"k#	c #090B08",
"l#	c #171916",
"m#	c #000100",
"n#	c #0B0B0B",
"o#	c #040404",
"p#	c #414640",
"q#	c #2C362B",
"r#	c #515D4F",
"s#	c #7B8978",
"t#	c #8D9E8C",
"u#	c #556354",
"v#	c #6D746C",
"w#	c #151A14",
"x#	c #1F241E",
"y#	c #010101",
"z#	c #8E938D",
"A#	c #394338",
"B#	c #5A6857",
"C#	c #4A5849",
"D#	c #676E66",
"E#	c #1D221C",
"F#	c #272C26",
"G#	c #0F110E",
"H#	c #101010",
"I#	c #070707",
"J#	c #313B30",
"K#	c #515D51",
"L#	c #333F33",
"M#	c #60655F",
"N#	c #383A37",
"O#	c #161815",
"P#	c #0A0C09",
"Q#	c #191919",
"R#	c #0D0D0D",
"S#	c #060606",
"                                                                                                ",
"                                                                                                ",
"                                                                                                ",
"                                                                                                ",
"                                                                                                ",
"                                    . + @ #                                                     ",
"                                    $ % & * = -                                                 ",
"                                    ; > , ' ) !                                                 ",
"            ~ {           ] ^ /     ( _ : < [ } | 1 2                                           ",
"            3 4 5         6 7 8 9 0 2 a b : c d e f g                                           ",
"            h i j k l     m n o p q r s t b u : a v w                                           ",
"            x y z A B     C D n n E F G H I : u b J K                                           ",
"            L M N O P Q R S o n o o 7 T U V W X b Y Z `  ...+.                                  ",
"            @.#.: $.%.&.*.=.-.;.o o ;.&.>.,.'.).!.~.{.].) ^.= /.                                ",
"              (.: : : _.:.&.<.[.}.|.D |.|.1.2.3.4.5.6.< 7.8.9.0.a.b.                            ",
"              c.$.t u : a d.e.f.g.h.E o n ;.D i.j.k.l.m.$.n.o.p.q.r.s.                          ",
"              t.u.: u u b : < v.w.x.y.z.o n n ;.A.B.C.D.E.F.G.H.I.J.K.L.M.                      ",
"              N.O.: u u u u : $.P.Q.R.S.T.U.o n D V.W.X.Y.Z.`.$. +.+++@+#+$+                    ",
"              %+&+: *+u u u u : : =+& -+;+>+,+o n n '+)+!+~+{+]+: a ^+/+(+_+:+                  ",
"                <+: u *+u u u u u : G.H.[+}+6 |+1+2+n 3+4+5+6+7+8+9+a 0+a+b+c+                  ",
"                d+: u u u e+e+u u u b : f+g+h+i+j+k+l+n n D m+n+o+l.p+a q+r+s+t+                ",
"                u+v+u u u e+e+u u u u u : w+x+y+J.z+A+p |.n D B+C+D+E+F+G+H+I+J+                ",
"                K+L+M+u u u u u u u u u N+c O+, P+Q+R+S+T+U+D V+W+X+Y+Z+`+ @.@                  ",
"                !++@: u u u u u u u u u u u *+: @@#@$@%@&@*@=@8 C+-@Y+;@`+>@,@                  ",
"                  '@p+b u b b u u u N+u u u N+u )@!@~@4.{@]@^@i+,.-@Y+/@`+(@_@                  ",
"                  :@<@: u b b u u u N+u u u u u u b b [@}@|@1@] 2@-@;@3@4@5@                    ",
"                    6@7@: *+u u u u N+u N+u u u u u b 8@9@0@a@b@c@-@;@d@e@f@                    ",
"                    @.g@h@c u u u u u u u u u *+u u u i@j@k@l@3 m@-@/@n@o@&+                    ",
"                        p@q@: u u u u u u u u r@s@u u t@u@v@z.@+K.-@w@4@(@                      ",
"                          x@y@z@u u u u u u u s@s@u u A@B@C@D@E@F@Y+h@G@H@                      ",
"                              I@J@u s@u u N+u u u u u K@L@M@N@O@P@Y+Q@R@                        ",
"                                S@T@N+u *+u N+u u u u U@V@W@X@Y@Y+;@h@Z@                        ",
"                                  `@ #.#e+u u u u u N++#@###$#~+Y+%#&#*#                        ",
"                                    =#>@-#u u u u u u ;#o@>#,#'#Y+Z+)#!#    ~#                  ",
"                                      {#]#^#/#u u u u (#_#:#<#[#Y+4.}#|#1#1#1#1#2#              ",
"                                          R@3#4#5#u e+6#7#8#~+9#0#a#b#c#1#1#d#~#1#              ",
"                                          !#L@e#f#g#e+h#7#i#j#*#w k#l#m#<#n#o#1#                ",
"                                            p#q#r#e#s#t#u#v#w#*#x#W+1#m#2@y#1#                  ",
"                                              z#5@A#e#B#C#D#E#F#G#H#1#I#1#                      ",
"                                                    J#K#L#M#N#O#P#1#1#1#                        ",
"                                                      F@[#x Q#R#S#1#                            ",
"                                                          n#I#1#9                               ",
"                                                                                                ",
"                                                                                                ",
"                                                                                                ",
"                                                                                                ",
"                                                                                                ",
"                                                                                                "};
