/* XPM */
static char * folder_xpm[] = {
"20 20 125 2",
"  	c None",
". 	c #989A96",
"+ 	c #747573",
"@ 	c #949494",
"# 	c #7F837E",
"$ 	c #A3AAA2",
"% 	c #ADB3AC",
"& 	c #8F938E",
"* 	c #A1A5A2",
"= 	c #767676",
"- 	c #DBDBDB",
"; 	c #868985",
"> 	c #8A9288",
", 	c #AEBAAE",
"' 	c #7E877E",
") 	c #A0A9A1",
"! 	c #CACFCA",
"~ 	c #D0D0D0",
"{ 	c #E2E3E2",
"] 	c #8E908D",
"^ 	c #767D75",
"/ 	c #909A8F",
"( 	c #9FA39E",
"_ 	c #70706F",
": 	c #8B958B",
"< 	c #ABB7AA",
"[ 	c #C8CFC7",
"} 	c #B1B4B1",
"| 	c #BFC0C0",
"1 	c #E2E2E2",
"2 	c #B8BAB8",
"3 	c #7D827C",
"4 	c #929992",
"5 	c #ACB1AB",
"6 	c #858884",
"7 	c #4E4F4D",
"8 	c #757E75",
"9 	c #A3B0A2",
"0 	c #ADBAAC",
"a 	c #BAC4BA",
"b 	c #B8BDB8",
"c 	c #AFB1AF",
"d 	c #C9C9C9",
"e 	c #DFE0DF",
"f 	c #959894",
"g 	c #80877F",
"h 	c #A5ADA4",
"i 	c #8D938D",
"j 	c #656764",
"k 	c #636B63",
"l 	c #9FAC9E",
"m 	c #ABB9A9",
"n 	c #ABB9AA",
"o 	c #B3BFB2",
"p 	c #B4BCB4",
"q 	c #B5B8B5",
"r 	c #B1B2B1",
"s 	c #D9DAD9",
"t 	c #BBBDBB",
"u 	c #798079",
"v 	c #98A198",
"w 	c #939A91",
"x 	c #464A45",
"y 	c #575E57",
"z 	c #9DAA9D",
"A 	c #ADBBAC",
"B 	c #B6C0B5",
"C 	c #B9BEB8",
"D 	c #979A97",
"E 	c #C1C2C1",
"F 	c #6D6F6C",
"G 	c #676E65",
"H 	c #7F887E",
"I 	c #929B91",
"J 	c #AAB6A8",
"K 	c #ACB8AA",
"L 	c #A6B2A4",
"M 	c #727A70",
"N 	c #737472",
"O 	c #585A57",
"P 	c #676F65",
"Q 	c #5D665B",
"R 	c #767C76",
"S 	c #919D91",
"T 	c #A6B4A5",
"U 	c #707A6E",
"V 	c #595B58",
"W 	c #575A56",
"X 	c #768074",
"Y 	c #3A4339",
"Z 	c #8D998D",
"` 	c #A1AEA0",
" .	c #A6B5A6",
"..	c #717C6F",
"+.	c #414540",
"@.	c #575C56",
"#.	c #6C756B",
"$.	c #7A867A",
"%.	c #99A698",
"&.	c #AAB8A9",
"*.	c #A8B6A7",
"=.	c #7E8A7C",
"-.	c #373C35",
";.	c #50564F",
">.	c #525A51",
",.	c #657064",
"'.	c #889587",
").	c #A8B6A6",
"!.	c #8B9788",
"~.	c #3A4039",
"{.	c #3D433C",
"].	c #292D28",
"^.	c #010101",
"/.	c #070707",
"(.	c #424B41",
"_.	c #667464",
":.	c #788576",
"<.	c #454C44",
"[.	c #1F231F",
"}.	c #080A08",
"|.	c #050605",
"1.	c #485147",
"2.	c #2E332D",
"3.	c #131413",
"4.	c #040504",
"                                        ",
"                                        ",
"                . +                     ",
"            @ # $ % &                   ",
"      *   = - ; > , '                   ",
"      ) ! = ~ { ] ^ / ( _               ",
"      : < [ } | 1 2 3 4 5 6 7           ",
"      8 9 0 a b c d e f g h i j         ",
"      k l m n o p q r s t u v w x       ",
"      y z n n n A B C D E F G H         ",
"        I J K n n n L M N O P Q         ",
"        R S T n n n T U V W X Y         ",
"            Z ` n n  ...+.@.#.          ",
"              $.%.&.*.=.-.;.>.          ",
"                ,.'.).!.~.{.].^./.      ",
"                  (._.:.<.[.}.|.        ",
"                      1.2.3.4.          ",
"                                        ",
"                                        ",
"                                        "};
