/* XPM */
static char * no_thumbnail_xpm[] = {
"80 60 225 2",
"  	c None",
". 	c #000000",
"+ 	c #8C8C8C",
"@ 	c #AAAAAA",
"# 	c #A7A7A6",
"$ 	c #999999",
"% 	c #121212",
"& 	c #020202",
"* 	c #262626",
"= 	c #969696",
"- 	c #B5B5B5",
"; 	c #B2B2B2",
"> 	c #B1B1B0",
", 	c #AFAFAE",
"' 	c #AEAEAD",
") 	c #4D4D4C",
"! 	c #161616",
"~ 	c #6B6B6B",
"{ 	c #9F9F9F",
"] 	c #B9B9B8",
"^ 	c #B8B8B7",
"/ 	c #B6B6B5",
"( 	c #B4B4B4",
"_ 	c #B0B0B0",
": 	c #AFAFAF",
"< 	c #ADADAC",
"[ 	c #989897",
"} 	c #181818",
"| 	c #9D9D9D",
"1 	c #AAAAA9",
"2 	c #ACACAB",
"3 	c #B0B0AF",
"4 	c #B8B8B8",
"5 	c #B7B7B7",
"6 	c #B6B6B6",
"7 	c #B5B5B4",
"8 	c #B4B4B3",
"9 	c #B2B2B1",
"0 	c #ADADAD",
"a 	c #252525",
"b 	c #D3D3D3",
"c 	c #7A7A7A",
"d 	c #878787",
"e 	c #A8A8A7",
"f 	c #B3B3B3",
"g 	c #B1B1B1",
"h 	c #878786",
"i 	c #D5D5D5",
"j 	c #E1E1E0",
"k 	c #7F7F7F",
"l 	c #808080",
"m 	c #ABABAB",
"n 	c #B3B3B2",
"o 	c #AEAEAE",
"p 	c #131313",
"q 	c #A0A0A0",
"r 	c #DDDDDD",
"s 	c #DBDBDB",
"t 	c #CBCBCB",
"u 	c #5A5A59",
"v 	c #787878",
"w 	c #999998",
"x 	c #A4A4A4",
"y 	c #ACACAC",
"z 	c #868686",
"A 	c #191919",
"B 	c #D4D4D4",
"C 	c #DFDFDF",
"D 	c #525252",
"E 	c #727272",
"F 	c #909090",
"G 	c #9D9D9C",
"H 	c #A6A6A5",
"I 	c #E4E4E4",
"J 	c #626261",
"K 	c #4D4D4D",
"L 	c #5D5D5D",
"M 	c #6F6F6F",
"N 	c #8D8D8D",
"O 	c #989898",
"P 	c #9E9E9E",
"Q 	c #A5A5A5",
"R 	c #646464",
"S 	c #5C5C5C",
"T 	c #535353",
"U 	c #616161",
"V 	c #707070",
"W 	c #747474",
"X 	c #8F8F8F",
"Y 	c #A7A7A7",
"Z 	c #141414",
"` 	c #424242",
" .	c #777777",
"..	c #8B8B8B",
"+.	c #929292",
"@.	c #9E9E9D",
"#.	c #A4A4A3",
"$.	c #888888",
"%.	c #1A1A1A",
"&.	c #8E8E8E",
"*.	c #828281",
"=.	c #949494",
"-.	c #9C9C9C",
";.	c #B7B7B6",
">.	c #272727",
",.	c #030303",
"'.	c #A8A8A8",
").	c #A2A2A2",
"!.	c #A2A2A1",
"~.	c #B9B9B9",
"{.	c #BABABA",
"].	c #BBBBBB",
"^.	c #BBBBBA",
"/.	c #BABAB9",
"(.	c #8F8F8E",
"_.	c #BCBCBC",
":.	c #BFBFBF",
"<.	c #BEBEBE",
"[.	c #C0C0C0",
"}.	c #BDBDBC",
"|.	c #292929",
"1.	c #C2C2C2",
"2.	c #BFBFBE",
"3.	c #C3C3C3",
"4.	c #C4C4C4",
"5.	c #C6C6C5",
"6.	c #C8C8C7",
"7.	c #C7C7C6",
"8.	c #C6C6C6",
"9.	c #C5C5C5",
"0.	c #C2C2C1",
"a.	c #C0C0BF",
"b.	c #BDBDBD",
"c.	c #CDCDCD",
"d.	c #C8C8C8",
"e.	c #C9C9C9",
"f.	c #CACACA",
"g.	c #CCCCCC",
"h.	c #CCCCCB",
"i.	c #CBCBCA",
"j.	c #CACAC9",
"k.	c #C7C7C7",
"l.	c #C1C1C0",
"m.	c #7D7D7C",
"n.	c #505050",
"o.	c #D8D8D8",
"p.	c #D0D0D0",
"q.	c #CECECE",
"r.	c #D1D1D0",
"s.	c #D2D2D2",
"t.	c #D1D1D1",
"u.	c #CECECD",
"v.	c #CDCDCC",
"w.	c #C3C3C2",
"x.	c #151514",
"y.	c #E3E3E3",
"z.	c #E0E0DF",
"A.	c #D7D7D7",
"B.	c #D9D9D9",
"C.	c #D9D9D8",
"D.	c #D8D8D7",
"E.	c #D6D6D6",
"F.	c #E8E8E8",
"G.	c #E6E6E6",
"H.	c #DEDEDE",
"I.	c #DCDCDC",
"J.	c #DBDBDA",
"K.	c #CFCFCF",
"L.	c #C9C9C8",
"M.	c #2A2A2A",
"N.	c #F0F0F0",
"O.	c #ECECEC",
"P.	c #E9E9E9",
"Q.	c #E2E2E1",
"R.	c #E0E0E0",
"S.	c #D7D7D6",
"T.	c #7B7B7B",
"U.	c #F4F4F4",
"V.	c #F1F1F1",
"W.	c #EEEEEE",
"X.	c #EBEBEB",
"Y.	c #E7E7E7",
"Z.	c #E5E5E5",
"`.	c #E4E4E3",
" +	c #E2E2E2",
".+	c #E1E1E1",
"++	c #DADADA",
"@+	c #D6D6D5",
"#+	c #D4D4D3",
"$+	c #A0A09F",
"%+	c #1C1C1C",
"&+	c #F9F9F9",
"*+	c #F6F6F6",
"=+	c #F3F3F3",
"-+	c #F1F1F0",
";+	c #EDEDED",
">+	c #EAEAEA",
",+	c #E5E5E4",
"'+	c #D2D2D1",
")+	c #D0D0CF",
"!+	c #FAFAFA",
"~+	c #F7F7F7",
"{+	c #F5F5F5",
"]+	c #EFEFEE",
"^+	c #DFDFDE",
"/+	c #FCFCFC",
"(+	c #FBFBFB",
"_+	c #F2F2F2",
":+	c #DDDDDC",
"<+	c #171717",
"[+	c #383838",
"}+	c #FEFEFE",
"|+	c #FDFDFD",
"1+	c #F8F8F8",
"2+	c #ECECEB",
"3+	c #FFFFFF",
"4+	c #FBFBFA",
"5+	c #E8E8E7",
"6+	c #E6E6E5",
"7+	c #A3A3A3",
"8+	c #F7F7F6",
"9+	c #7D7D7D",
"0+	c #F3F3F2",
"a+	c #343434",
"b+	c #373737",
"                                                                                                                                                                ",
"                                                                                                                                                                ",
"                                                                                                                                                                ",
"                                                                                                                                                                ",
"                                                                                                                                                                ",
"                                                                                                                                                                ",
"                                                                                                                                                                ",
"                                                                                                                                                                ",
"                                                                                                                                                                ",
"                                                                                                                                                                ",
"                                                                                                                                                                ",
"                                                                                                                                                                ",
"                                                                                                                                                                ",
"                                                                                                                                                                ",
"                                                                                                                                                                ",
"                                                                                                                                                                ",
"                                                                                                                                                                ",
"                                                                                                                                                                ",
"                                                                                    . .                                                                         ",
"                                                                                . . + + .                                                                       ",
"                                                                            . . + @ # $ %                                                                       ",
"                                                                  . . . & * = - ; > , ' ) .                                                                     ",
"                                                          . . ! ! ~ { ] ^ ^ / ( ; _ : < [ .                                                                     ",
"                                                        } | 1 2 3 4 4 4 5 6 7 8 9 > , 0 0 a                                                                     ",
"                                                      . b c d { e > 8 - ( ( f ; g 3 ' ' < h .                                                                   ",
"                                                    . i j k ~ l { m _ 9 n > 9 : _ o 0 0 < < p                                                                   ",
"                                                  . q r s t u v w x y : : : , , o 0 0 0 y 0 z .                                                                 ",
"                                                  A B C r b D E F G H y 0 0 0 0 0 < < 2 < < 0 p                                                                 ",
"                                                . m I # J K L M N O P Q 2 y ' o 0 y m y < ' , h .                                                               ",
"                                                . R S T D U V W X $ | Y y y , : , ' y y 0 : _ g Z                                                               ",
"                                                . ` k  . .v v ..+.@.#.< _ g ; f ; 3 ' , 3 g ; f $..                                                             ",
"                                                  %.&.[ *.X k =.-.Y : g 8 / 7 - ( ( ; ; 8 7 7 / ;.>.                                                            ",
"                                                  ,.g '.).{ !.H @ : ; 6 ~.{.].^././.4 4 4 4 ~.] ] (..                                                           ",
"                                                  . _.6 ( g g _ ; / /.:.<.:.[.[.:.:.}.}.}._._._.].].|.                                                          ",
"                                                  . ].1.2.].~.4 ~.<.3.4.5.6.7.8.9.4.3.1.1.0.a.a.:.b.'..                                                         ",
"                                                  . o c.d.9.4.0.[.8.e.f.g.g.c.h.i.j.d.k.8.9.4.4.0.l.a.m..                                                       ",
"                                                  . n.o.B p.c.q.q.p.r.s.s.s.t.t.p.p.u.v.h.e.d.8.9.4.w.0.x.                                                      ",
"                                                    . y.z.s o.o.o.A.o.B.C.D.A.E.B B s.p.q.v.h.j.d.k.8.4.P .                                                     ",
"                                                    . r F.G.y.j C H.r r I.I.I.J.J.C.E.B s.t.K.q.h.i.L.8.4.M.                                                    ",
"                                                    . e.N.O.P.G.I y.Q.R.R.R.C C H.r J.C.S.B s.t.K.c.t L.7.' .                                                   ",
"                                                    . T.U.V.W.X.P.Y.G.Z.Z.`.y. +.+R.H.I.++D.@+#+t.K.c.t e.k.$+.                                                 ",
"                                                      %+&+*+=+-+;+O.>+P.F.Y.Y.G.,+ +R.H.I.++o.E.#+'+)+c.t 4.F .                                                 ",
"                                                      . s !+~+{+=+V.]+;+O.X.>+F.Y.Z.y.j ^+I.++o.E.B s.)++.! .                                                   ",
"                                                      . {./+(+&+~+{+=+_+N.]+;+X.P.Y.Z.y..+C :+J.o.E.0 <+. .                                                     ",
"                                                        [+}+|+|+!+1+*+{+=+_+N.W.2+P.Y.Z.y..+C r 3 <+. . . . .                                                   ",
"                                                        . 3+3+}+}+/+4+1+*+U._+N.W.O.>+5+6+i 7+. . . . . . . .                                                   ",
"                                                        . <.3+3+3+3+|+(+&+8+U._+N.W.O.8.= . . . . . . . . . . .                                                 ",
"                                                        . 9+3+3+3+3+3+|+(+&+~+{+0+q a+. . . . . . . . . . . .                                                   ",
"                                                          . 3+3+3+3+3+3+|+(+K.X . . . . . . . . . . . .                                                         ",
"                                                          . <.3+3+3+3+ +Y b+. . . . . . . . . .                                                                 ",
"                                                            [+3+ +].9+. . . . . . . . .                                                                         ",
"                                                            . . . . . . . . . .                                                                                 ",
"                                                              . . . .                                                                                           ",
"                                                                                                                                                                ",
"                                                                                                                                                                ",
"                                                                                                                                                                ",
"                                                                                                                                                                ",
"                                                                                                                                                                ",
"                                                                                                                                                                ",
"                                                                                                                                                                "};
