/* XPM */
static char * resize_xpm[] = {
"24 24 34 1",
" 	c None",
".	c #D6405D",
"+	c #000000",
"@	c #393939",
"#	c #101010",
"$	c #0E0E0E",
"%	c #030303",
"&	c #2B2B2B",
"*	c #414141",
"=	c #060606",
"-	c #0B0B0B",
";	c #151515",
">	c #0A0A0A",
",	c #313131",
"'	c #121212",
")	c #1D1D1D",
"!	c #2E2E2E",
"~	c #7B7B7B",
"{	c #3A3A3A",
"]	c #080808",
"^	c #1C1C1C",
"/	c #141414",
"(	c #6E6E6E",
"_	c #070707",
":	c #010101",
"<	c #6D6D6D",
"[	c #111111",
"}	c #5F5F5F",
"|	c #606060",
"1	c #656565",
"2	c #454545",
"3	c #3C3C3C",
"4	c #383838",
"5	c #424242",
"..............          ",
"..............          ",
"..          ..          ",
"..          ..          ",
"..          ..          ",
"..          ..          ",
"..          ..          ",
"..          ..          ",
".. ++++++++++++++++++++ ",
"...+..........        + ",
"...+..........        + ",
"   +         @#       + ",
"   +         $%&      + ",
"   +          *=-     + ",
"   +           ;>,    + ",
"   +            ')  !~+ ",
"   +            {];^/(+ ",
"   +             #=_:<+ ",
"   +             [:+:}+ ",
"   +            {%+++|+ ",
"   +            12*345+ ",
"   +                  + ",
"   +                  + ",
"   ++++++++++++++++++++ "};
