/* XPM */
static char * camera_xpm[] = {
"24 24 211 2",
"  	c None",
". 	c #484848",
"+ 	c #626262",
"@ 	c #676767",
"# 	c #6E6E6E",
"$ 	c #101010",
"% 	c #0C0C0C",
"& 	c #0D0D0D",
"* 	c #262626",
"= 	c #2C2323",
"- 	c #A5A4A4",
"; 	c #E7E7E7",
"> 	c #A8A8A8",
", 	c #797979",
"' 	c #505050",
") 	c #AAAAAA",
"! 	c #444444",
"~ 	c #403A3A",
"{ 	c #684444",
"] 	c #8D4B4B",
"^ 	c #622B2B",
"/ 	c #665856",
"( 	c #9F9E9E",
"_ 	c #525252",
": 	c #131313",
"< 	c #595959",
"[ 	c #4A4A4A",
"} 	c #201D1D",
"| 	c #4B3232",
"1 	c #C87475",
"2 	c #CB585A",
"3 	c #BB4646",
"4 	c #512221",
"5 	c #191414",
"6 	c #121212",
"7 	c #171717",
"8 	c #1E1E1E",
"9 	c #3B3B3B",
"0 	c #464646",
"a 	c #151515",
"b 	c #3A3A3A",
"c 	c #322F2F",
"d 	c #120202",
"e 	c #270606",
"f 	c #2A0707",
"g 	c #150A0A",
"h 	c #464544",
"i 	c #414141",
"j 	c #4D4D4D",
"k 	c #515151",
"l 	c #494949",
"m 	c #404040",
"n 	c #242424",
"o 	c #383838",
"p 	c #D1D1D1",
"q 	c #BCBBBB",
"r 	c #928E8E",
"s 	c #5E5A5A",
"t 	c #4E4E4E",
"u 	c #4D4D4E",
"v 	c #424242",
"w 	c #3D3D3D",
"x 	c #3B3B3D",
"y 	c #2E2E2E",
"z 	c #D3D3D3",
"A 	c #CACACA",
"B 	c #A2A2A2",
"C 	c #585858",
"D 	c #4B4B4B",
"E 	c #3E3E3D",
"F 	c #2C2C2C",
"G 	c #1B1B1B",
"H 	c #343432",
"I 	c #5A5A5A",
"J 	c #D4D4D4",
"K 	c #969696",
"L 	c #3F3F3F",
"M 	c #343434",
"N 	c #999999",
"O 	c #E8E8E8",
"P 	c #CBCBCB",
"Q 	c #B4B4B4",
"R 	c #242323",
"S 	c #010000",
"T 	c #161514",
"U 	c #262525",
"V 	c #6C6C6C",
"W 	c #C3C3C3",
"X 	c #8B8B8B",
"Y 	c #393939",
"Z 	c #252525",
"` 	c #373737",
" .	c #8E8E8E",
"..	c #C8C8C8",
"+.	c #D8D8D8",
"@.	c #2D2D2C",
"#.	c #494642",
"$.	c #797264",
"%.	c #7E7767",
"&.	c #696252",
"*.	c #5A5448",
"=.	c #35332E",
"-.	c #282827",
";.	c #686868",
">.	c #CECECE",
",.	c #C1C1C1",
"'.	c #818181",
").	c #4C4C4C",
"!.	c #363636",
"~.	c #5A5858",
"{.	c #828282",
"].	c #2A2A29",
"^.	c #BAB6AE",
"/.	c #FAF2E2",
"(.	c #D4CBB9",
"_.	c #B7AD9B",
":.	c #968C79",
"<.	c #686254",
"[.	c #282621",
"}.	c #050505",
"|.	c #191919",
"1.	c #6A6A6A",
"2.	c #B7B7B7",
"3.	c #7A7A7A",
"4.	c #313131",
"5.	c #0B0B0B",
"6.	c #3C3C3C",
"7.	c #22211F",
"8.	c #8F8B85",
"9.	c #C3C0B8",
"0.	c #EBE5DA",
"a.	c #FCF3E6",
"b.	c #D4D0C9",
"c.	c #55524D",
"d.	c #0B0A08",
"e.	c #000000",
"f.	c #020000",
"g.	c #020100",
"h.	c #050404",
"i.	c #070707",
"j.	c #565656",
"k.	c #303030",
"l.	c #282828",
"m.	c #222222",
"n.	c #2C2824",
"o.	c #736D63",
"p.	c #8E8A81",
"q.	c #AEAAA0",
"r.	c #B0ACA3",
"s.	c #20201D",
"t.	c #16110E",
"u.	c #4F433E",
"v.	c #90877F",
"w.	c #0B0A0A",
"x.	c #030303",
"y.	c #1A1A1A",
"z.	c #060606",
"A.	c #211E18",
"B.	c #3D3930",
"C.	c #58544A",
"D.	c #75716C",
"E.	c #1E1E1C",
"F.	c #141110",
"G.	c #8B7B71",
"H.	c #AC9180",
"I.	c #A69A92",
"J.	c #828280",
"K.	c #080607",
"L.	c #0F0F0F",
"M.	c #5E5E5E",
"N.	c #606060",
"O.	c #12110E",
"P.	c #201C18",
"Q.	c #3A3630",
"R.	c #2C2B29",
"S.	c #020202",
"T.	c #12100E",
"U.	c #B8A79B",
"V.	c #B39A88",
"W.	c #BAAFA6",
"X.	c #959696",
"Y.	c #727373",
"Z.	c #202020",
"`.	c #262625",
" +	c #0F0E0C",
".+	c #1F1E1C",
"++	c #040404",
"@+	c #7E716A",
"#+	c #B49F91",
"$+	c #CDC1B9",
"%+	c #949B9F",
"&+	c #808385",
"*+	c #5C5C5C",
"=+	c #272624",
"-+	c #080605",
";+	c #A4948C",
">+	c #C6B9B2",
",+	c #8A8E91",
"'+	c #7A7E81",
")+	c #212122",
"!+	c #5B5B5B",
"~+	c #232323",
"{+	c #0B0C0A",
"]+	c #4C4644",
"^+	c #42403F",
"/+	c #1F2021",
"(+	c #101111",
"_+	c #767475",
":+	c #020302",
"<+	c #1D1D1D",
"[+	c #323232",
"                                                ",
"                                                ",
"            . + @ # $ % & *                     ",
"          = - ; > , ' . ) !                     ",
"    ~ { ] ^ / ( + _ . : < [ $                   ",
"  } | 1 2 3 4 5 6 7 8 9 . 0 a                   ",
"  b c d e f g h i j k [ l m n                   ",
"  o p q r s t ! u ' v w . x y *                 ",
"  t z A B C D w E 6 F o % 6 G H                 ",
"  I J A K ' L M 7 N O P Q R S S T U             ",
"  V p W X l Y Z `  ...+.@.#.$.%.&.*.=.-.        ",
"  ;.>.,.'.).!.n o ~.{.].^./.(._.:.<.[.}.6 *     ",
"  |.1.2.3.m !.4.5.6.7.8.9.0.a.b.c.d.e.f.g.h.    ",
"    i.j.V L k.l.m.g.n.o.p.q.r.s.e.f.t.u.v.w.x.  ",
"      % y.y 6 8 6.z.A.B.C.D.E.e.F.G.H.I.J.}.K.  ",
"          L.M.    N.O.P.Q.R.S.T.U.V.W.X.Y.6 Z.  ",
"                    `. +.+++h.@+#+$+%+&+Z.w *+  ",
"                      =+L.e.-+;+>+,+'+)+v !+~+  ",
"                        i.z.{+]+^+/+(++ _+`     ",
"                          & x.:+z.6 % 6 <+      ",
"                              0 l.n [+          ",
"                                                ",
"                                                ",
"                                                "};
