/* XPM */
static char * get_index_empty_xpm[] = {
"24 24 3 1",
" 	c None",
".	c #000000",
"+	c #FFFFFF",
"                        ",
"                        ",
"                        ",
"                        ",
"   .................    ",
"   .+++.+++.+++.+++.    ",
"   .+++.+++.+++.+++.    ",
"   .+++.+++.+++.+++.    ",
"   .................    ",
"   .+++.+++.+++.+++.    ",
"   .+++.+++.+++.+++.    ",
"   .+++.+++.+++.+++.    ",
"   .................    ",
"   .+++.+++.+++.+++.    ",
"   .+++.+++.+++.+++.    ",
"   .+++.+++.+++.+++.    ",
"   .................    ",
"   .+++.+++.+++.+++.    ",
"   .+++.+++.+++.+++.    ",
"   .+++.+++.+++.+++.    ",
"   .................    ",
"                        ",
"                        ",
"                        "};
