/* XPM */
static char *get_index_xpm[] = {
"24 24 6 1",
" 	c None",
".	c #000000",
"+	c #BF1C1C",
"@	c #14911C",
"#	c #E2D816",
"$	c #130DAD",
"                        ",
"                        ",
"                        ",
"                        ",
"   .................    ",
"   .+++.@@@.###.$$$.    ",
"   .+++.@@@.###.$$$.    ",
"   .+++.@@@.###.$$$.    ",
"   .................    ",
"   .$$$.###.+++.###.    ",
"   .$$$.###.+++.###.    ",
"   .$$$.###.+++.###.    ",
"   .................    ",
"   .###.@@@.$$$.###.    ",
"   .###.@@@.$$$.###.    ",
"   .###.@@@.$$$.###.    ",
"   .................    ",
"   .+++.###.@@@.+++.    ",
"   .+++.###.@@@.+++.    ",
"   .+++.###.@@@.+++.    ",
"   .................    ",
"                        ",
"                        ",
"                        "};
